<?xml version="1.0" standalone="no"?>
<!DOCTYPE svg PUBLIC "-//W3C//DTD SVG 20010904//EN"
 "http://www.w3.org/TR/2001/REC-SVG-20010904/DTD/svg10.dtd">
<svg version="1.0" xmlns="http://www.w3.org/2000/svg"
 width="300.000000pt" height="300.000000pt" viewBox="0 0 300.000000 300.000000"
 preserveAspectRatio="xMidYMid meet">
<metadata>
Created by potrace 1.10, written by Peter Selinger 2001-2011
</metadata>
<g transform="translate(0.000000,300.000000) scale(0.100000,-0.100000)"
fill="#499773" stroke="none">
<path d="M350 2650 c0 -6 -4 -8 -10 -5 -12 7 -100 -51 -100 -67 0 -6 -7 -16
-15 -22 -20 -14 -28 -50 -25 -106 4 -60 4 -106 0 -160 -2 -26 -7 2 -10 65 -3
61 -6 -324 -6 -855 l1 -965 5 855 c3 470 6 845 8 833 1 -12 5 -24 10 -26 6 -5
8 49 11 274 1 37 7 53 35 85 19 22 54 50 77 62 l44 22 1130 -2 1130 -3 42 -24
c24 -14 43 -27 43 -30 0 -4 10 -17 23 -31 13 -14 29 -40 35 -59 9 -25 12 -283
12 -1000 0 -859 -2 -969 -16 -989 -8 -12 -12 -22 -9 -22 3 0 -6 -12 -20 -27
-14 -15 -25 -31 -25 -35 0 -4 -19 -18 -42 -30 l-43 -23 -1115 -2 c-1203 -3
-1169 -5 -1236 50 -38 32 -74 100 -68 132 3 20 3 20 -12 0 -8 -11 -12 -26 -8
-35 3 -8 8 -24 10 -35 2 -11 11 -25 19 -31 8 -6 15 -16 15 -21 0 -5 21 -25 48
-44 l47 -34 1135 -3 c834 -2 1146 0 1177 9 55 15 115 67 142 124 l21 45 -2
994 -3 994 -30 43 c-17 24 -50 57 -74 74 l-43 30 -1154 3 c-816 1 -1154 -1
-1154 -8z"/>
<path d="M749 2595 c-3 -3 -62 -7 -130 -9 -68 -3 -144 -7 -168 -11 -31 -5 -42
-4 -37 4 19 30 -70 -6 -107 -43 -15 -15 -27 -33 -27 -41 0 -8 -5 -15 -11 -15
-7 0 -10 -12 -7 -30 3 -16 1 -30 -3 -30 -14 0 1 -114 16 -123 8 -4 15 -15 15
-24 0 -12 3 -13 13 -4 8 6 16 9 19 6 3 -3 542 -5 1198 -5 872 0 1196 3 1206
11 10 8 14 37 14 98 0 103 -16 142 -75 184 l-40 28 -923 0 c-508 0 -927 -3
-932 -6 -4 -3 -10 0 -12 6 -2 5 -6 8 -9 4z m1895 -45 c56 -29 71 -62 74 -166
l4 -94 -1219 2 -1218 3 0 92 -1 93 38 40 c21 22 38 38 38 35 0 -4 6 -2 14 2 8
4 516 8 1128 8 970 0 1117 -2 1142 -15z"/>
<path d="M1986 2474 c-38 -38 -27 -96 22 -115 59 -22 108 65 63 110 -25 25
-63 27 -85 5z m74 -33 c5 -11 7 -26 4 -34 -7 -20 -45 -29 -61 -15 -14 11 -18
50 -6 61 13 14 53 6 63 -12z"/>
<path d="M2182 2468 c-27 -29 -28 -58 -4 -88 36 -44 112 -17 112 40 0 36 -19
59 -55 66 -23 4 -35 0 -53 -18z m76 -40 c2 -19 -3 -30 -18 -38 -27 -14 -50 2
-50 35 0 29 9 37 40 33 19 -2 26 -10 28 -30z"/>
<path d="M2382 2474 c-41 -28 -24 -99 28 -116 27 -9 68 20 75 53 6 24 2 36
-16 55 -26 28 -55 31 -87 8z m66 -26 c16 -16 15 -33 -4 -52 -12 -12 -20 -13
-35 -6 -18 10 -26 50 -12 63 10 11 38 8 51 -5z"/>
<path d="M1458 2224 c-3 -3 -266 -7 -584 -10 -318 -3 -583 -9 -588 -14 -4 -4
-15 -6 -22 -3 -10 4 -13 -4 -10 -35 2 -21 7 -45 11 -52 5 -7 4 -11 -1 -7 -5 3
-9 -312 -8 -781 0 -759 1 -788 19 -817 47 -73 72 -82 200 -79 55 2 92 1 82 -2
-9 -3 -17 -9 -17 -12 0 -4 469 -6 1042 -5 l1043 3 40 28 c81 57 76 -14 75 922
0 622 -3 836 -12 847 -9 12 -107 14 -629 12 -339 -1 -621 1 -627 5 -5 3 -12 3
-14 0z m1260 -860 l-3 -839 -23 -33 c-47 -66 20 -63 -1196 -56 -605 3 -1107 5
-1114 5 -7 -1 -32 17 -56 39 l-43 40 -1 835 -1 835 597 2 c328 2 877 5 1220 7
l622 3 -2 -838z m-2018 -938 c0 -2 -7 -7 -16 -10 -8 -3 -12 -2 -9 4 6 10 25
14 25 6z"/>
<path d="M1695 1960 c-10 -12 -29 -51 -41 -88 -12 -37 -41 -119 -64 -182 -23
-63 -48 -135 -56 -160 -8 -25 -19 -54 -23 -65 -22 -50 -71 -192 -71 -203 0 -7
-4 -20 -10 -30 -5 -9 -28 -71 -51 -137 -23 -66 -57 -161 -76 -212 -19 -50 -36
-98 -37 -105 -2 -7 -6 -22 -10 -33 -35 -95 -34 -93 -19 -114 16 -23 55 -28 70
-8 11 13 81 193 88 223 2 11 18 57 35 104 18 47 33 90 34 95 2 6 5 17 8 25 62
169 90 248 93 260 2 8 18 53 35 100 17 47 33 92 35 100 2 8 24 71 50 140 26
69 48 132 50 140 2 8 11 35 19 59 21 56 20 74 -2 94 -24 22 -35 21 -57 -3z
m35 -91 c-12 -30 -30 -79 -40 -109 -19 -59 -57 -166 -67 -190 -3 -8 -7 -17 -8
-20 -4 -19 -38 -119 -45 -135 -17 -38 -112 -310 -125 -356 -7 -26 -19 -60 -28
-75 -8 -16 -21 -49 -28 -74 -6 -25 -18 -55 -26 -67 -7 -13 -11 -23 -8 -23 8 0
-58 -175 -69 -182 -6 -4 -16 -2 -23 4 -13 10 -11 30 7 73 4 11 18 49 30 85 12
36 28 79 35 95 7 17 37 100 65 185 29 85 58 169 65 185 8 17 21 56 30 88 10
35 21 55 27 51 6 -4 8 -3 5 3 -5 9 82 284 103 321 5 10 19 49 31 87 12 39 25
74 30 80 5 5 9 17 9 26 0 22 21 30 38 14 11 -9 9 -22 -8 -66z"/>
<path d="M1020 1781 c-36 -37 -85 -90 -110 -117 -25 -28 -84 -92 -131 -144
-48 -52 -102 -113 -120 -134 -19 -22 -42 -46 -51 -55 -29 -25 -21 -59 25 -108
23 -26 67 -74 97 -107 30 -33 68 -73 83 -90 16 -16 65 -70 109 -120 45 -50
100 -110 124 -134 38 -38 45 -41 67 -31 27 12 37 35 28 60 -5 14 -109 132
-206 234 -11 12 -56 61 -100 110 -44 49 -93 101 -108 116 -28 27 -28 28 -10
46 10 10 50 54 88 97 39 43 77 86 86 95 17 17 126 137 201 219 58 63 66 94 33
116 -14 9 -28 16 -32 16 -4 0 -37 -31 -73 -69z m96 24 c7 -16 -10 -38 -131
-170 -254 -278 -305 -336 -305 -345 0 -6 28 -41 63 -78 356 -385 377 -409 377
-427 0 -30 -31 -29 -58 1 -14 16 -53 58 -86 94 -34 36 -97 105 -141 154 -44
50 -109 121 -145 159 -36 38 -68 78 -72 88 -6 16 15 45 105 143 61 67 168 184
236 259 68 75 130 137 138 137 7 0 16 -7 19 -15z"/>
<path d="M1883 1839 c-16 -6 -23 -16 -23 -36 0 -33 30 -68 394 -460 l48 -52
-123 -134 c-341 -367 -337 -362 -313 -395 28 -40 56 -28 135 61 41 45 99 109
130 142 173 185 279 309 279 326 0 14 -143 185 -200 239 -3 3 -67 73 -143 156
-75 84 -143 154 -150 157 -6 2 -22 1 -34 -4z m58 -52 c34 -32 82 -84 373 -408
77 -85 81 -90 70 -97 -6 -4 -17 -17 -26 -30 -9 -13 -40 -49 -70 -80 -29 -31
-121 -131 -204 -222 -178 -195 -182 -199 -194 -180 -12 20 -2 40 51 95 137
145 365 399 373 415 7 16 -14 45 -125 167 -74 81 -141 155 -149 164 -128 136
-160 177 -153 195 8 20 15 18 54 -19z"/>
<path d="M206 2165 c-3 -8 -1 -15 4 -15 6 0 10 7 10 15 0 8 -2 15 -4 15 -2 0
-6 -7 -10 -15z"/>
<path d="M213 2100 c0 -25 2 -35 4 -22 2 12 2 32 0 45 -2 12 -4 2 -4 -23z"/>
<path d="M206 1873 c3 -49 8 -90 10 -92 2 -2 4 37 4 87 0 53 -4 92 -10 92 -6
0 -7 -34 -4 -87z"/>
<path d="M206 1733 c-8 -49 -6 -281 3 -403 6 -70 8 -26 9 173 0 147 0 267 -2
267 -2 0 -6 -17 -10 -37z"/>
<path d="M213 1190 c0 -25 2 -35 4 -22 2 12 2 32 0 45 -2 12 -4 2 -4 -23z"/>
<path d="M205 1082 c-6 -57 2 -282 11 -291 2 -2 4 75 3 172 -1 97 -3 177 -4
177 -2 0 -6 -26 -10 -58z"/>
<path d="M207 763 c-4 -3 -7 -38 -7 -76 0 -39 3 -67 6 -64 5 5 13 147 8 147 0
0 -4 -3 -7 -7z"/>
<path d="M207 590 c3 -11 7 -20 9 -20 2 0 4 9 4 20 0 11 -4 20 -9 20 -5 0 -7
-9 -4 -20z"/>
<path d="M426 411 c-3 -4 6 -6 19 -3 14 2 25 6 25 8 0 8 -39 4 -44 -5z"/>
</g>
</svg>
